# xmcd
#
# Track frame offsets: 
#        150
#        3855
#        18155
#        30710
#        42042
#        48827
#        59970
#        70880
#        82985
#        95020
#        103835
#        116397
#        129605
#        144317
#        151485
#        164850
#        170492
#        181387
#        195882
#        208222
#        221835
#        236584
#        248995
#        260887
#        269195
#        279927
#        290060
#        300557
#        311250
#        320655
#
# Disc length: 4400 seconds
#
# Revision: 0
# Processed by: cddbd v1.5.2PL0 Copyright (c) Steve Scherf et al.
# Submitted via: ExactAudioCopy v0.95b4
#
DISCID=c3112e1e
DTITLE=Sampler - Stubenmusik aus dem Alpenland - Heitere Klänge aus de
DTITLE=m Alpenland
DYEAR=1998
DGENRE=Country
TTITLE0=Alphorn-Jodler
TTITLE1=Alter Tanz aus Tirol
TTITLE2=Hinum und herum, Zwiefacher
TTITLE3=Du schwarzaugata Bua
TTITLE4=Haflinger Raffele-Galopp
TTITLE5=Lecherl-Polka
TTITLE6=Im Austragsstüberl, langs. Polka
TTITLE7=Berghirtentänzle
TTITLE8=Und d'Sennerin auf der Alm
TTITLE9=Auf geht's
TTITLE10=A recht a Fesche, Polka
TTITLE11=Allgäuer Hirtenmusik
TTITLE12=Tölzer Schützenmarsch
TTITLE13=Wann i geh auf die Pirsch
TTITLE14=Waldecker Marsch
TTITLE15=Ostrachtaler Tänzle
TTITLE16=Auf der Treibjagd, schnelle Polka
TTITLE17=Feierabend, lans. Walzer
TTITLE18=Gamserl-Polka
TTITLE19=Tiroler Harfenklänge, Walzer
TTITLE20=Im Sommerhäusl, Polka
TTITLE21=Boarischer
TTITLE22=Postillion-Polka
TTITLE23=Gaißbuebe-Polka
TTITLE24=Wann i in der Fruah aufsteh
TTITLE25=Holzkeilnest, Zwiefacher
TTITLE26=Heut tanz ma, Walzer
TTITLE27='S gibt nur a Loisachtal alloa
TTITLE28=Bienenstock-Polka
TTITLE29=Per Eilboten, Schnellpolka
EXTD=
EXTT0=
EXTT1=
EXTT2=
EXTT3=
EXTT4=
EXTT5=
EXTT6=
EXTT7=
EXTT8=
EXTT9=
EXTT10=
EXTT11=
EXTT12=
EXTT13=
EXTT14=
EXTT15=
EXTT16=
EXTT17=
EXTT18=
EXTT19=
EXTT20=
EXTT21=
EXTT22=
EXTT23=
EXTT24=
EXTT25=
EXTT26=
EXTT27=
EXTT28=
EXTT29=
PLAYORDER=
